<?xml version="1.0" standalone="no"?><!DOCTYPE svg PUBLIC "-//W3C//DTD SVG 1.1//EN" "http://www.w3.org/Graphics/SVG/1.1/DTD/svg11.dtd"><svg height="1024" node-id="1" sillyvg="true" template-height="1024" template-width="1024" version="1.1" viewBox="0 0 1024 1024" width="1024" xmlns="http://www.w3.org/2000/svg" xmlns:xlink="http://www.w3.org/1999/xlink"><defs node-id="118"><linearGradient gradientUnits="objectBoundingBox" id="linearGradient-1" node-id="5" spreadMethod="pad" x1="0.5606294" x2="0.4056022" y1="0.09706833" y2="1"><stop offset="0" stop-color="#edf5ff"></stop><stop offset="1" stop-color="#a1b6cc"></stop></linearGradient><linearGradient gradientUnits="objectBoundingBox" id="linearGradient-2" node-id="8" spreadMethod="pad" x1="0.45343667" x2="0.5711975" y1="0.07584357" y2="1"><stop offset="0" stop-color="#eef4ff"></stop><stop offset="1" stop-color="#a1b6cc"></stop></linearGradient><linearGradient gradientUnits="objectBoundingBox" id="linearGradient-3" node-id="11" spreadMethod="pad" x1="0.42237335" x2="0.42237335" y1="1" y2="-0.44147897"><stop offset="0" stop-color="#f7f8f9"></stop><stop offset="1" stop-color="#d5e4f8"></stop></linearGradient><linearGradient gradientUnits="objectBoundingBox" id="linearGradient-4" node-id="14" spreadMethod="pad" x1="0.42237335" x2="0.42237335" y1="1" y2="-0.44147897"><stop offset="0" stop-color="#f7f8f9"></stop><stop offset="1" stop-color="#d5e4f8"></stop></linearGradient><linearGradient gradientUnits="objectBoundingBox" id="linearGradient-5" node-id="17" spreadMethod="pad" x1="0.42237335" x2="0.42237335" y1="0.9970967" y2="0.02857167"><stop offset="0" stop-color="#f2f4f9" stop-opacity="0"></stop><stop offset="1" stop-color="#e7eeff"></stop></linearGradient><linearGradient gradientUnits="objectBoundingBox" id="linearGradient-6" node-id="20" spreadMethod="pad" x1="0.5698649" x2="0.39122286" y1="0.09706833" y2="1"><stop offset="0" stop-color="#edf5ff"></stop><stop offset="1" stop-color="#a1b6cc"></stop></linearGradient><linearGradient gradientUnits="objectBoundingBox" id="linearGradient-7" node-id="23" spreadMethod="pad" x1="0.44341227" x2="0.5865253" y1="0.07584357" y2="1"><stop offset="0" stop-color="#eef4ff"></stop><stop offset="1" stop-color="#a1b6cc"></stop></linearGradient><linearGradient gradientUnits="objectBoundingBox" id="linearGradient-8" node-id="26" spreadMethod="pad" x1="0.570043" x2="0.39094552" y1="0.09706833" y2="1"><stop offset="0" stop-color="#edf5ff"></stop><stop offset="1" stop-color="#a1b6cc"></stop></linearGradient><linearGradient gradientUnits="objectBoundingBox" id="linearGradient-9" node-id="29" spreadMethod="pad" x1="0.44256106" x2="0.58782685" y1="0.07584357" y2="1"><stop offset="0" stop-color="#eef4ff"></stop><stop offset="1" stop-color="#a1b6cc"></stop></linearGradient><linearGradient gradientUnits="objectBoundingBox" id="linearGradient-10" node-id="32" spreadMethod="pad" x1="0.16061689" x2="0.36685932" y1="0.0406254" y2="0.26093096"><stop offset="0" stop-color="#8f98a6"></stop><stop offset="1" stop-color="#9ea8b9"></stop></linearGradient><linearGradient gradientUnits="objectBoundingBox" id="linearGradient-11" node-id="35" spreadMethod="pad" x1="0.8737522" x2="0.6850321" y1="0.059460633" y2="0.2823393"><stop offset="0" stop-color="#b1b9c9"></stop><stop offset="0.98252946" stop-color="#b1bbce"></stop></linearGradient><linearGradient gradientUnits="objectBoundingBox" id="linearGradient-12" node-id="38" spreadMethod="pad" x1="0.5" x2="0.5" y1="0" y2="1"><stop offset="0.019749781" stop-color="#f0f6ff"></stop><stop offset="1" stop-color="#c3cada"></stop></linearGradient><linearGradient gradientUnits="objectBoundingBox" id="linearGradient-13" node-id="41" spreadMethod="pad" x1="0.9990743" x2="0.05352093" y1="0.5" y2="0.92389745"><stop offset="0.017735194" stop-color="#a7b0c0"></stop><stop offset="1" stop-color="#d5d9e2"></stop></linearGradient><linearGradient gradientUnits="objectBoundingBox" id="linearGradient-14" node-id="44" spreadMethod="pad" x1="0.5" x2="0.5" y1="0" y2="1"><stop offset="0" stop-color="#edf0f7"></stop><stop offset="1" stop-color="#d8e2f2"></stop></linearGradient><linearGradient gradientUnits="objectBoundingBox" id="linearGradient-15" node-id="47" spreadMethod="pad" x1="0.9990743" x2="0.5" y1="0.2603172" y2="0.7526381"><stop offset="0" stop-color="#a0a7b6"></stop><stop offset="1" stop-color="#d3d8e5"></stop></linearGradient><linearGradient gradientUnits="objectBoundingBox" id="linearGradient-16" node-id="50" spreadMethod="pad" x1="1" x2="0" y1="0.5" y2="0.5"><stop offset="0" stop-color="#e4ecf7"></stop><stop offset="1" stop-color="#b5bbc9"></stop></linearGradient><linearGradient gradientUnits="objectBoundingBox" id="linearGradient-17" node-id="53" spreadMethod="pad" x1="0.81652194" x2="0.25041297" y1="0.31988358" y2="0.7760591"><stop offset="0" stop-color="#f0f6ff"></stop><stop offset="0.13713452" stop-color="#eef4fe"></stop><stop offset="1" stop-color="#c3cada"></stop></linearGradient><linearGradient gradientUnits="objectBoundingBox" id="linearGradient-18" node-id="57" spreadMethod="pad" x1="0.84859574" x2="0.5" y1="0.06691209" y2="0.6147484"><stop offset="0" stop-color="#d0d5e2"></stop><stop offset="1" stop-color="#d9dde3"></stop></linearGradient><linearGradient gradientUnits="objectBoundingBox" id="linearGradient-19" node-id="60" spreadMethod="pad" x1="0.5" x2="-0.0068965983" y1="0.3028964" y2="1"><stop offset="0" stop-color="#c7d0e4"></stop><stop offset="0.9905963" stop-color="#949baa"></stop></linearGradient><linearGradient gradientUnits="objectBoundingBox" id="linearGradient-20" node-id="63" spreadMethod="pad" x1="1" x2="0" y1="0.5" y2="0.6102949"><stop offset="0" stop-color="#848d9d"></stop><stop offset="1" stop-color="#8590a5"></stop></linearGradient><linearGradient gradientUnits="objectBoundingBox" id="linearGradient-21" node-id="66" spreadMethod="pad" x1="0.8992376" x2="0.5" y1="0.10878942" y2="0.99319726"><stop offset="0" stop-color="#d3deee"></stop><stop offset="1" stop-color="#c1cad9"></stop></linearGradient></defs><g node-id="320"><path d="M 78.00 78.00 L 946.00 78.00 L 946.00 946.00 L 78.00 946.00 Z" fill="#ffffff" fill-opacity="0" fill-rule="nonzero" group-id="1" id="矩形" node-id="71" stroke="none" target-height="868" target-width="868" target-x="78" target-y="78"></path><g node-id="322"><path d="M 264.62 614.94 L 264.23 615.92 L 263.01 616.92 L 260.52 617.94 L 256.29 618.83 L 250.60 619.20 L 244.89 618.83 L 240.68 617.94 L 238.17 616.92 L 236.97 615.92 L 236.58 614.94 L 236.97 613.95 L 238.17 612.95 L 240.68 611.93 L 244.89 611.04 L 250.60 610.67 L 256.29 611.04 L 260.52 611.93 L 263.01 612.95 L 264.23 613.95 Z" fill="#85a0c7" fill-opacity="0.46671754" fill-rule="evenodd" group-id="1,3" node-id="253" stroke="none" target-height="8.528137" target-width="28.036407" target-x="236.58359" target-y="610.6699"></path><path d="M 238.28 614.86 L 239.60 614.64 L 242.18 612.58 L 244.83 609.61 L 248.13 605.35 L 254.66 595.74 L 260.30 586.24 L 263.60 579.36 L 264.49 575.30 L 264.53 571.52 L 263.75 567.92 L 262.17 564.64 L 260.00 562.15 L 257.16 560.35 L 253.92 559.59 L 250.82 559.83 L 247.69 561.09 L 244.96 563.15 L 242.70 565.97 L 240.90 569.70 L 239.21 577.25 L 237.65 588.49 L 236.69 600.49 L 236.76 610.28 L 237.43 613.73 Z" fill="url(#linearGradient-1)" fill-opacity="0.4493209" fill-rule="evenodd" group-id="1,3" node-id="255" stroke="none" target-height="55.269897" target-width="27.84111" target-x="236.6921" target-y="559.58813"></path><path d="M 238.99 614.90 L 240.10 613.71 L 241.25 609.80 L 241.92 605.01 L 242.38 598.54 L 242.55 584.56 L 241.94 571.35 L 240.77 562.41 L 239.12 557.96 L 236.76 554.36 L 233.70 551.49 L 230.29 549.67 L 226.58 548.91 L 222.76 549.37 L 219.25 551.02 L 216.36 553.71 L 214.25 557.14 L 212.93 561.26 L 212.54 565.69 L 213.17 570.42 L 216.29 578.79 L 221.87 590.55 L 228.49 602.55 L 231.87 607.91 L 234.67 611.71 L 237.47 614.47 Z" fill="url(#linearGradient-2)" fill-opacity="0.7793666" fill-rule="evenodd" group-id="1,3" node-id="257" stroke="none" target-height="65.989685" target-width="30.011093" target-x="212.54" target-y="548.91174"></path></g><path d="M 164.51 302.92 L 161.56 302.72 L 158.00 302.92 L 153.39 302.60 L 149.04 301.72 L 144.91 300.28 L 141.01 298.31 L 137.46 295.92 L 134.22 293.07 L 131.37 289.83 L 128.98 286.28 L 127.01 282.38 L 125.57 278.25 L 124.69 273.90 L 124.37 269.29 L 124.69 264.67 L 125.57 260.32 L 127.01 256.19 L 128.98 252.29 L 131.37 248.74 L 134.22 245.50 L 137.46 242.65 L 141.01 240.26 L 144.91 238.29 L 149.04 236.85 L 153.39 235.97 L 158.00 235.65 L 161.19 235.80 L 164.28 236.24 L 166.35 232.68 L 168.69 229.37 L 171.31 226.29 L 174.22 223.43 L 177.37 220.85 L 180.72 218.56 L 184.28 216.58 L 188.08 214.89 L 191.99 213.56 L 196.04 212.59 L 200.26 212.00 L 204.66 211.78 L 209.39 212.03 L 213.91 212.72 L 218.24 213.83 L 222.40 215.36 L 226.41 217.30 L 230.15 219.57 L 233.64 222.17 L 236.88 225.13 L 239.84 228.37 L 242.44 231.86 L 244.71 235.60 L 246.65 239.61 L 248.18 243.77 L 249.29 248.10 L 249.98 252.62 L 250.23 257.35 L 250.23 257.35 L 277.35 257.35 L 280.51 257.58 L 283.46 258.18 L 286.23 259.14 L 288.86 260.46 L 291.30 262.12 L 293.47 264.02 L 295.37 266.19 L 297.03 268.63 L 298.35 271.26 L 299.31 274.03 L 299.91 276.98 L 300.14 280.13 L 299.91 283.29 L 299.31 286.24 L 298.35 289.01 L 297.03 291.64 L 295.37 294.08 L 293.47 296.25 L 291.30 298.15 L 288.86 299.81 L 286.23 301.13 L 283.46 302.09 L 280.51 302.69 L 277.35 302.92 L 164.51 302.92 Z" fill="url(#linearGradient-3)" fill-opacity="0.7" fill-rule="evenodd" group-id="1" id="形状结合" node-id="76" stroke="none" target-height="91.139984" target-width="175.77002" target-x="124.369995" target-y="211.78"></path><path d="M 778.48 256.92 L 776.63 256.80 L 774.41 256.92 L 771.49 256.71 L 768.77 256.16 L 766.21 255.27 L 763.79 254.05 L 760.84 251.96 L 758.33 249.45 L 756.24 246.50 L 755.02 244.08 L 754.13 241.52 L 753.58 238.80 L 753.37 235.88 L 753.58 232.97 L 754.13 230.25 L 755.02 227.69 L 756.24 225.27 L 758.33 222.32 L 760.84 219.81 L 763.79 217.72 L 766.21 216.50 L 768.77 215.61 L 771.49 215.06 L 774.41 214.85 L 776.40 214.94 L 778.33 215.22 L 780.09 212.28 L 782.16 209.62 L 784.55 207.21 L 787.20 205.09 L 790.08 203.32 L 793.21 201.86 L 796.49 200.80 L 799.94 200.15 L 803.58 199.92 L 807.50 200.19 L 811.19 200.94 L 814.68 202.16 L 817.99 203.82 L 821.00 205.85 L 823.74 208.27 L 826.15 211.01 L 828.18 214.02 L 829.85 217.33 L 831.06 220.82 L 831.81 224.50 L 832.08 228.42 L 832.08 228.42 L 849.05 228.42 L 851.65 228.66 L 854.03 229.31 L 856.24 230.37 L 858.24 231.78 L 859.94 233.48 L 861.35 235.48 L 862.41 237.68 L 863.06 240.07 L 863.30 242.67 L 863.06 245.27 L 862.41 247.66 L 861.35 249.86 L 859.94 251.86 L 858.24 253.56 L 856.24 254.97 L 854.03 256.03 L 851.65 256.68 L 849.05 256.92 L 778.48 256.92 Z" fill="url(#linearGradient-4)" fill-opacity="0.7" fill-rule="evenodd" group-id="1" id="形状结合备份" node-id="77" stroke="none" target-height="56.999985" target-width="109.92859" target-x="753.37" target-y="199.92"></path><path d="M 121.80 720.32 L 135.23 701.72 L 147.93 686.14 L 159.93 673.27 L 171.32 662.82 L 182.10 654.48 L 192.39 648.04 L 202.22 643.26 L 211.68 639.99 L 220.84 638.08 L 229.80 637.45 L 238.65 638.06 L 247.92 639.90 L 257.69 643.11 L 268.04 647.82 L 279.08 654.22 L 290.91 662.55 L 303.56 673.04 L 317.17 685.95 L 331.79 701.61 L 347.48 720.32 Z" fill="url(#linearGradient-5)" fill-rule="evenodd" group-id="1,4" id="路径" node-id="79" stroke="none" target-height="82.87225" target-width="225.67998" target-x="121.8" target-y="637.4477"></path><path d="M 298.47 720.32 L 310.47 698.90 L 322.17 680.46 L 333.54 664.66 L 344.63 651.29 L 355.43 640.10 L 365.98 630.85 L 376.31 623.36 L 386.42 617.46 L 396.43 613.04 L 406.34 609.93 L 416.24 608.09 L 426.18 607.48 L 436.98 608.11 L 449.85 610.17 L 465.15 613.95 L 483.23 619.78 L 504.49 628.03 L 529.32 639.08 L 558.16 653.35 L 591.44 671.32 L 629.72 693.48 L 673.45 720.32 Z" fill="none" group-id="1,4" id="路径-2" node-id="80" stroke="none" target-height="112.839966" target-width="374.976" target-x="298.472" target-y="607.48"></path><path d="M 859.20 720.32 L 845.75 702.20 L 832.99 686.77 L 820.88 673.75 L 809.38 662.92 L 798.44 654.05 L 788.05 646.91 L 778.09 641.35 L 768.54 637.23 L 759.34 634.37 L 750.40 632.72 L 741.67 632.17 L 731.63 632.83 L 719.86 634.95 L 706.13 638.86 L 690.11 644.85 L 671.50 653.29 L 649.95 664.62 L 625.12 679.22 L 596.63 697.62 L 564.08 720.32 Z" fill="none" group-id="1,4" id="路径-3" node-id="81" stroke="none" target-height="88.145386" target-width="295.12" target-x="564.08" target-y="632.17456"></path><path d="M 807.85 615.29 L 807.18 616.50 L 804.70 617.74 L 801.47 618.44 L 797.09 618.74 L 792.73 618.44 L 789.49 617.74 L 787.02 616.50 L 786.35 615.29 L 787.02 614.10 L 789.49 612.86 L 792.73 612.14 L 797.09 611.86 L 801.47 612.14 L 804.70 612.86 L 807.18 614.10 Z" fill="#85a0c7" fill-opacity="0.66985214" fill-rule="evenodd" group-id="1,5" node-id="269" stroke="none" target-height="6.8789063" target-width="21.5047" target-x="786.34534" target-y="611.8611"></path><path d="M 787.65 615.25 L 788.95 614.92 L 791.68 612.58 L 797.72 605.11 L 803.58 596.37 L 807.07 589.88 L 807.76 586.97 L 807.78 584.26 L 807.18 581.70 L 805.98 579.38 L 804.31 577.60 L 802.12 576.29 L 799.65 575.75 L 797.26 575.93 L 794.87 576.82 L 792.77 578.31 L 791.03 580.33 L 789.64 582.98 L 788.04 590.20 L 786.71 600.75 L 786.39 610.47 L 786.89 614.12 Z" fill="url(#linearGradient-6)" fill-opacity="0.5765206" fill-rule="evenodd" group-id="1,5" node-id="271" stroke="none" target-height="39.49402" target-width="21.39618" target-x="786.38873" target-y="575.75226"></path><path d="M 787.13 615.27 L 788.17 614.07 L 789.19 610.02 L 789.69 605.11 L 789.90 598.93 L 789.60 586.78 L 789.08 581.42 L 788.52 578.36 L 787.21 575.17 L 785.39 572.65 L 783.07 570.67 L 780.36 569.35 L 777.54 568.85 L 774.54 569.16 L 771.78 570.37 L 769.61 572.17 L 767.92 574.67 L 766.92 577.51 L 766.64 580.57 L 767.12 583.98 L 768.18 586.91 L 770.48 591.81 L 776.38 602.49 L 779.75 607.74 L 782.68 611.73 L 785.61 614.75 Z" fill="url(#linearGradient-7)" fill-rule="evenodd" group-id="1,5" node-id="273" stroke="none" target-height="46.41632" target-width="23.26239" target-x="766.6417" target-y="568.8517"></path><path d="M 777.61 767.80 L 777.22 768.80 L 776.00 769.80 L 773.49 770.84 L 769.23 771.73 L 763.50 772.10 L 757.77 771.73 L 753.52 770.84 L 751.00 769.80 L 749.79 768.80 L 749.40 767.80 L 749.79 766.81 L 751.00 765.81 L 753.52 764.77 L 757.77 763.88 L 763.50 763.51 L 769.23 763.88 L 773.49 764.77 L 776.00 765.81 L 777.22 766.81 Z" fill="#85a0c7" fill-opacity="0.5353029" fill-rule="evenodd" group-id="1,6" node-id="277" stroke="none" target-height="8.593201" target-width="28.210022" target-x="749.398" target-y="763.50684"></path><path d="M 753.35 768.58 L 755.08 768.30 L 758.43 765.81 L 761.88 762.20 L 766.15 757.08 L 774.64 745.43 L 781.97 733.95 L 784.79 728.87 L 786.27 725.64 L 787.44 720.82 L 787.48 716.18 L 786.44 711.75 L 784.47 707.93 L 781.60 704.81 L 777.89 702.64 L 773.72 701.71 L 769.58 702.03 L 765.63 703.51 L 761.98 706.09 L 759.01 709.56 L 756.75 713.97 L 755.76 717.37 L 754.54 723.08 L 752.54 736.69 L 751.29 751.20 L 751.13 757.95 L 751.37 763.03 L 752.24 767.20 Z" fill="url(#linearGradient-8)" fill-opacity="0.5170562" fill-rule="evenodd" group-id="1,6" node-id="279" stroke="none" target-height="66.879395" target-width="36.347473" target-x="751.13403" target-y="701.7052"></path><path d="M 753.30 768.61 L 754.28 767.89 L 755.30 766.09 L 756.30 762.53 L 757.19 756.78 L 757.80 749.03 L 758.03 732.32 L 757.23 716.53 L 756.47 709.84 L 755.67 705.83 L 753.50 700.51 L 750.33 696.17 L 746.29 692.76 L 741.74 690.57 L 738.46 689.79 L 735.14 689.68 L 731.71 690.20 L 728.48 691.42 L 725.66 693.13 L 723.23 695.39 L 720.41 699.54 L 718.67 704.44 L 718.15 709.73 L 719.00 715.40 L 720.36 719.26 L 723.14 725.42 L 730.56 739.48 L 739.33 753.85 L 743.84 760.25 L 747.55 764.81 L 750.27 767.41 L 752.07 768.48 Z" fill="url(#linearGradient-9)" fill-opacity="0.8968564" fill-rule="evenodd" group-id="1,6" node-id="281" stroke="none" target-height="78.92291" target-width="39.884583" target-x="718.15" target-y="689.6834"></path></g><g node-id="321"><g node-id="326"><path d="M 494.99 431.78 L 656.10 469.46 L 656.10 650.33 L 525.74 718.00 L 494.99 704.87 Z" fill="url(#linearGradient-10)" fill-rule="evenodd" group-id="2,7" id="路径" node-id="92" stroke="none" target-height="286.22122" target-width="161.1112" target-x="494.99243" target-y="431.77853"></path><path d="M 367.66 464.75 L 494.99 431.78 L 494.99 704.87 L 367.66 645.86 Z" fill="url(#linearGradient-11)" fill-rule="evenodd" group-id="2,7" id="路径" node-id="93" stroke="none" target-height="273.09183" target-width="127.33264" target-x="367.6597" target-y="431.77853"></path><path d="M 350.18 464.75 L 350.18 642.87 L 525.74 718.00 L 525.74 515.89 L 525.74 511.23 L 367.66 464.75 Z" fill="#e2ebfc" fill-rule="evenodd" group-id="2,7" id="路径" node-id="94" stroke="none" target-height="253.25339" target-width="175.56757" target-x="350.1764" target-y="464.7466"></path><path d="M 350.18 464.75 L 350.18 642.87 L 525.74 718.00 L 525.74 515.89 Z" fill="url(#linearGradient-12)" fill-rule="evenodd" group-id="2,7" id="路径" node-id="95" stroke="none" target-height="253.25339" target-width="175.56757" target-x="350.1764" target-y="464.7466"></path><path d="M 525.74 515.89 L 525.74 718.00 L 675.48 640.35 L 675.48 467.32 L 656.10 469.46 L 525.74 511.23 Z" fill="#d3dbef" fill-rule="evenodd" group-id="2,7" id="路径" node-id="96" stroke="none" target-height="250.67755" target-width="149.73907" target-x="525.74414" target-y="467.32227"></path><path d="M 525.74 515.89 L 525.74 718.00 L 675.48 640.35 L 675.48 467.32 Z" fill="url(#linearGradient-13)" fill-rule="evenodd" group-id="2,7" id="路径" node-id="97" stroke="none" target-height="250.67755" target-width="149.73907" target-x="525.74414" target-y="467.32227"></path><path d="M 367.66 464.75 L 494.99 431.78 L 494.99 424.38 L 350.18 464.75 Z" fill="#dfe7f5" fill-rule="evenodd" group-id="2,7" id="路径" node-id="98" stroke="none" target-height="40.36902" target-width="144.81592" target-x="350.1764" target-y="424.37775"></path><path d="M 494.99 424.38 L 675.48 467.32 L 656.10 469.46 L 494.99 431.78 Z" fill="#d6e0f6" fill-rule="evenodd" group-id="2,7" id="路径" node-id="99" stroke="none" target-height="45.079407" target-width="180.49072" target-x="494.99243" target-y="424.37775"></path><path d="M 350.18 464.75 L 350.18 561.53 L 301.00 532.89 Z" fill="url(#linearGradient-14)" fill-rule="evenodd" group-id="2,7" id="路径" node-id="100" stroke="none" target-height="96.77951" target-width="49.17627" target-x="301" target-y="464.7466"></path><path d="M 350.18 478.23 L 350.18 561.53 L 307.56 536.74 Z" fill="url(#linearGradient-15)" fill-rule="evenodd" group-id="2,7" id="路径" node-id="101" stroke="none" target-height="83.29727" target-width="42.612885" target-x="307.56345" target-y="478.2289"></path><path d="M 675.48 467.32 L 675.48 567.93 L 722.00 540.87 Z" fill="#d8d8d8" fill-rule="evenodd" group-id="2,7" id="路径" node-id="102" stroke="none" target-height="100.60852" target-width="46.516724" target-x="675.4833" target-y="467.32227"></path><path d="M 525.74 515.89 L 525.74 530.13 L 571.03 617.18 L 575.55 617.18 L 575.55 610.62 Z" fill="#dbe3ec" fill-rule="evenodd" group-id="2,7" id="路径" node-id="103" stroke="none" target-height="101.29846" target-width="49.80371" target-x="525.74414" target-y="515.8856"></path><path d="M 575.55 610.62 L 575.55 617.18 L 722.00 544.70 L 722.00 540.87 Z" fill="url(#linearGradient-16)" fill-rule="evenodd" group-id="2,7" id="路径" node-id="104" stroke="none" target-height="76.31415" target-width="146.45203" target-x="575.5479" target-y="540.8699"></path><path d="M 525.74 515.89 L 575.55 613.15 L 722.00 540.87 L 675.48 467.32 Z" fill="url(#linearGradient-17)" fill-rule="evenodd" group-id="2,7" id="路径" node-id="105" stroke="none" target-height="145.82715" target-width="196.25574" target-x="525.74414" target-y="467.32227"></path><path d="M 557.12 401.04 L 555.02 402.71 L 552.73 399.82 L 557.00 396.46 L 561.46 393.00 L 563.70 395.92 L 561.46 397.65 L 557.12 401.04 Z M 539.78 415.33 L 538.20 416.71 L 535.77 413.95 L 544.21 406.74 L 546.56 409.58 L 543.08 412.50 L 539.78 415.33 Z M 522.36 431.98 L 525.84 428.31 L 530.02 424.19 L 527.48 421.53 L 523.21 425.73 L 519.65 429.50 L 522.36 431.98 Z M 511.67 448.85 L 511.55 449.72 L 507.90 449.25 L 508.03 448.31 L 508.74 445.50 L 510.19 442.20 L 512.56 438.29 L 515.60 440.36 L 513.47 443.86 L 512.23 446.64 L 511.67 448.85 Z M 523.55 449.75 L 526.16 449.26 L 528.65 449.27 L 531.03 449.76 L 533.09 450.68 L 534.97 447.51 L 533.16 446.62 L 531.22 445.99 L 529.10 445.62 L 526.96 445.53 L 524.77 445.72 L 522.53 446.21 L 523.55 449.75 Z M 508.81 461.76 L 507.86 463.07 L 504.86 460.93 L 507.43 457.55 L 509.93 454.69 L 512.37 452.29 L 514.84 455.02 L 512.47 457.36 L 510.01 460.21 L 508.45 460.68 L 508.81 461.76 Z M 508.81 461.76 L 509.79 463.81 L 510.98 465.53 L 512.38 466.94 L 514.01 468.08 L 515.84 468.94 L 517.90 469.52 L 518.61 465.91 L 516.77 465.36 L 515.22 464.49 L 513.91 463.28 L 512.83 461.68 L 511.97 459.61 L 510.01 460.21 L 508.81 461.76 Z M 528.47 464.40 L 531.07 463.02 L 533.18 461.49 L 534.89 459.75 L 535.87 458.14 L 539.26 459.58 L 538.44 461.10 L 537.29 462.62 L 535.75 464.13 L 533.12 466.08 L 529.96 467.77 L 528.47 464.40 Z M 497.28 482.05 L 499.74 476.87 L 502.14 472.28 L 498.91 470.51 L 496.45 475.22 L 493.93 480.53 L 497.28 482.05 Z M 489.20 502.45 L 493.02 492.15 L 489.59 490.80 L 485.73 501.23 L 489.20 502.45 Z" fill="url(#linearGradient-18)" fill-rule="evenodd" group-id="2,7" id="形状" node-id="106" stroke="none" target-height="109.446625" target-width="77.96869" target-x="485.7295" target-y="393"></path><path d="M 372.34 517.49 L 372.34 527.79 L 493.15 565.35 L 493.15 552.21 Z" fill="#ffffff" fill-rule="nonzero" group-id="2,7" id="路径" node-id="107" stroke="none" target-height="47.85492" target-width="120.81232" target-x="372.34006" target-y="517.4918"></path><path d="M 372.34 555.78 L 372.34 567.37 L 439.94 589.99 L 439.94 578.29 Z" fill="#ffffff" fill-rule="nonzero" group-id="2,7" id="路径" node-id="108" stroke="none" target-height="34.20935" target-width="67.597565" target-x="372.34006" target-y="555.77966"></path><path d="M 372.34 597.47 L 372.34 608.93 L 428.68 631.16 L 428.68 618.60 Z" fill="#ffffff" fill-rule="nonzero" group-id="2,7" id="路径" node-id="109" stroke="none" target-height="33.69165" target-width="56.338043" target-x="372.34006" target-y="597.4718"></path></g><g node-id="327"><path d="M 580.93 350.55 L 580.93 393.00 L 606.93 366.01 Z" fill="url(#linearGradient-19)" fill-rule="evenodd" group-id="2,8" node-id="308" stroke="none" target-height="42.453674" target-width="26.006165" target-x="580.92865" target-y="350.54633"></path><path d="M 668.00 307.00 L 580.93 350.55 L 580.93 356.37 L 599.12 374.03 Z" fill="url(#linearGradient-20)" fill-rule="evenodd" group-id="2,8" node-id="310" stroke="none" target-height="67.02957" target-width="87.07135" target-x="580.92865" target-y="307"></path><path d="M 633.04 378.00 L 630.10 383.71 L 593.93 365.83 L 594.09 359.51 Z" fill="#dce6f4" fill-rule="evenodd" group-id="2,8" node-id="312" stroke="none" target-height="24.20102" target-width="39.104065" target-x="593.93176" target-y="359.5056"></path><path d="M 668.00 307.00 L 552.23 328.25 L 580.93 350.55 Z" fill="#d8e1f2" fill-rule="evenodd" group-id="2,8" node-id="314" stroke="none" target-height="43.546356" target-width="115.7666" target-x="552.23334" target-y="307"></path><path d="M 668.00 307.00 L 633.04 378.00 L 594.09 359.81 Z" fill="url(#linearGradient-21)" fill-rule="evenodd" group-id="2,8" node-id="316" stroke="none" target-height="70.99603" target-width="73.91351" target-x="594.0865" target-y="307"></path><path d="M 552.23 328.25 L 544.00 330.36 L 580.93 359.51 L 580.93 350.55 Z" fill="#e6eefd" fill-rule="evenodd" group-id="2,8" node-id="318" stroke="none" target-height="31.2547" target-width="36.92865" target-x="544" target-y="328.25092"></path></g></g></svg>