<?xml version="1.0" standalone="no"?><!DOCTYPE svg PUBLIC "-//W3C//DTD SVG 1.1//EN" "http://www.w3.org/Graphics/SVG/1.1/DTD/svg11.dtd"><svg t="1683739321269" class="icon" viewBox="0 0 1024 1024" version="1.1" xmlns="http://www.w3.org/2000/svg" p-id="6476" xmlns:xlink="http://www.w3.org/1999/xlink" width="200" height="200"><path d="M833.4336 179.2l-483.584 113.7664V674.176a143.3344 143.3344 0 0 0-56.8832-11.4176C230.144 662.7584 179.2 700.928 179.2 748.0832c0 47.1296 50.944 85.3504 113.7664 85.3504 62.848 0 113.792-38.2208 113.792-85.3504V336.4864l369.7664-87.0144V560.384a143.3344 143.3344 0 0 0-56.8832-11.4176c-62.8224 0-113.7664 38.2208-113.7664 85.3504 0 47.104 50.944 85.3248 113.7664 85.3248 62.848 0 113.792-38.1952 113.792-85.3248V179.2z m76.8 844.8H113.7664C51.2 1024 0 972.8 0 910.2336V113.7664C0 51.2 51.2 0 113.7664 0h796.4672C972.8 0 1024 51.2 1024 113.7664v796.4672C1024 972.8 972.8 1024 910.2336 1024z" fill="#e6e6e6" p-id="6477"></path></svg>